<?xml version="1.0" standalone="no"?>
<!DOCTYPE svg PUBLIC "-//W3C//DTD SVG 20010904//EN"
 "http://www.w3.org/TR/2001/REC-SVG-20010904/DTD/svg10.dtd">
<svg version="1.0" xmlns="http://www.w3.org/2000/svg"
 width="915.000000pt" height="915.000000pt" viewBox="0 0 915.000000 915.000000"
 preserveAspectRatio="xMidYMid meet">
<metadata>
Created by potrace 1.14, written by Peter Selinger 2001-2017
</metadata>
<g transform="translate(0.000000,915.000000) scale(0.100000,-0.100000)"
fill="#000000" stroke="none">
<path d="M3213 7055 c-177 -32 -301 -95 -431 -219 -78 -75 -120 -130 -165
-221 -57 -115 -77 -195 -88 -355 -12 -176 -28 -247 -83 -365 -79 -167 -215
-305 -380 -385 -109 -53 -206 -76 -351 -85 -255 -14 -417 -79 -573 -229 -118
-112 -192 -238 -234 -395 -28 -107 -28 -286 1 -396 46 -177 158 -348 296 -453
145 -110 283 -158 501 -172 160 -10 237 -27 342 -76 231 -106 400 -314 457
-559 8 -35 20 -126 25 -202 12 -167 27 -230 86 -348 83 -168 204 -289 369
-370 119 -58 186 -75 326 -82 187 -9 334 30 487 129 494 323 494 1055 1 1375
-135 87 -245 120 -441 133 -157 10 -244 29 -344 75 -219 100 -381 287 -456
525 -20 64 -23 95 -23 220 1 171 14 230 81 365 80 161 200 284 353 364 116 60
197 81 356 92 280 20 432 80 598 238 248 236 319 639 166 944 -122 244 -339
405 -604 452 -104 18 -174 18 -272 0z"/>
<path d="M5665 7060 c-324 -51 -575 -274 -671 -595 -35 -120 -38 -298 -5 -420
45 -171 153 -338 282 -440 146 -114 306 -171 508 -181 252 -13 413 -78 575
-233 117 -112 203 -266 237 -426 18 -86 16 -246 -5 -340 -39 -176 -157 -363
-301 -472 -146 -111 -283 -158 -506 -173 -211 -14 -329 -52 -474 -155 -237
-168 -372 -473 -336 -757 26 -199 96 -343 241 -489 84 -85 107 -102 200 -147
134 -66 198 -83 340 -89 233 -10 440 67 603 225 166 161 237 329 257 606 10
153 26 227 70 322 102 225 304 395 548 460 31 8 119 19 194 24 75 5 167 16
205 26 239 58 443 229 548 458 46 99 64 174 72 291 23 379 -216 722 -582 834
-44 14 -122 26 -210 32 -222 17 -346 52 -472 136 -122 81 -225 197 -291 328
-53 106 -72 188 -82 345 -6 83 -19 178 -30 224 -42 160 -138 312 -266 419 -79
67 -234 147 -334 171 -81 21 -236 28 -315 16z"/>
<path d="M4405 5395 c-232 -52 -422 -196 -533 -405 -63 -118 -83 -196 -89
-340 -4 -90 -1 -145 10 -197 61 -283 264 -508 542 -599 104 -34 293 -44 402
-21 283 61 506 262 600 542 24 73 27 94 27 235 1 135 -2 165 -22 230 -86 275
-301 480 -576 550 -94 24 -267 26 -361 5z"/>
</g>
</svg>
