<?xml version="1.0" standalone="no"?>
<!DOCTYPE svg PUBLIC "-//W3C//DTD SVG 20010904//EN"
 "http://www.w3.org/TR/2001/REC-SVG-20010904/DTD/svg10.dtd">
<svg version="1.0" xmlns="http://www.w3.org/2000/svg"
 width="915.000000pt" height="915.000000pt" viewBox="0 0 915.000000 915.000000"
 preserveAspectRatio="xMidYMid meet">
<metadata>
Created by potrace 1.14, written by Peter Selinger 2001-2017
</metadata>
<g transform="translate(0.000000,915.000000) scale(0.100000,-0.100000)"
fill="#000000" stroke="none">
<path d="M470 9134 c-220 -47 -408 -237 -455 -459 -22 -106 -22 -8094 0 -8200
47 -224 236 -413 460 -460 106 -22 8094 -22 8200 0 224 47 413 236 460 460 22
106 22 8094 0 8200 -47 224 -236 413 -460 460 -103 22 -8105 21 -8205 -1z
m4305 -1264 c1142 -77 2122 -691 2692 -1687 201 -350 339 -765 398 -1198 23
-166 31 -519 16 -697 -95 -1106 -716 -2074 -1685 -2623 -537 -304 -1194 -456
-1804 -417 -715 46 -1345 288 -1902 730 -128 102 -396 372 -504 507 -646 812
-878 1866 -630 2873 231 940 867 1733 1745 2173 511 256 1109 377 1674 339z"/>
<path d="M4464 6770 c-199 -29 -401 -164 -501 -335 -65 -110 -83 -184 -94
-380 -5 -93 -17 -210 -28 -260 -72 -343 -253 -515 -621 -585 -30 -6 -138 -15
-240 -20 -202 -10 -268 -23 -375 -74 -192 -91 -323 -249 -375 -452 -19 -71
-20 -111 -20 -523 0 -505 3 -532 71 -669 76 -156 237 -294 403 -348 117 -38
289 -45 406 -15 137 34 222 83 326 186 75 74 99 105 133 175 68 140 71 164 71
685 0 473 6 578 41 720 60 239 214 410 437 484 260 87 704 90 958 6 262 -87
404 -258 470 -565 13 -61 18 -177 23 -620 8 -602 6 -582 76 -720 173 -337 602
-468 962 -293 115 56 245 186 302 303 68 139 71 166 71 665 0 495 -3 525 -69
660 -86 179 -243 309 -443 365 -53 15 -124 23 -258 30 -102 5 -212 14 -245 20
-306 57 -496 204 -581 450 -38 108 -54 208 -64 395 -5 106 -15 191 -25 225
-102 337 -444 544 -811 490z"/>
<path d="M4468 3830 c-173 -31 -293 -94 -413 -215 -101 -101 -153 -182 -192
-300 -25 -73 -27 -94 -28 -235 0 -149 1 -158 31 -243 45 -125 87 -190 189
-293 77 -77 105 -98 185 -138 133 -65 200 -80 345 -80 145 0 212 15 344 80
170 84 313 250 377 439 33 96 44 276 24 378 -53 277 -269 510 -542 587 -82 23
-247 34 -320 20z"/>
</g>
</svg>
