<svg width="55" height="55" viewBox="0 0 55 55" fill="none" xmlns="http://www.w3.org/2000/svg">
<rect width="54.822" height="54.822" fill="#151A1A"/>
<path d="M10.3306 4.99255H4.03467V11.2885H10.3306V4.99255Z" fill="#F5F5F5" stroke="#F5F5F5" stroke-width="0.123434" stroke-miterlimit="23.9103"/>
<path d="M23.5381 4.99255H17.2422V11.2885H23.5381V4.99255Z" fill="#F5F5F5" stroke="#F5F5F5" stroke-width="0.123434" stroke-miterlimit="23.9103"/>
<path d="M36.875 4.99255H30.5791V11.2885H36.875V4.99255Z" fill="#F5F5F5" stroke="#F5F5F5" stroke-width="0.123434" stroke-miterlimit="23.9103"/>
<path d="M10.3316 18.2H4.03564V24.4959H10.3316V18.2Z" fill="#F5F5F5" stroke="#F5F5F5" stroke-width="0.123434" stroke-miterlimit="23.9103"/>
<path d="M23.5381 18.2H17.2422V24.4959H23.5381V18.2Z" fill="#F5F5F5" stroke="#F5F5F5" stroke-width="0.123434" stroke-miterlimit="23.9103"/>
<path d="M10.3316 31.5374H4.03564V37.8333H10.3316V31.5374Z" fill="#F5F5F5" stroke="#F5F5F5" stroke-width="0.123434" stroke-miterlimit="23.9103"/>
<path d="M46.9936 6.23535C46.0114 6.23535 45.1475 7.09927 45.1475 8.08153C45.1475 9.06379 46.0114 9.92771 46.9936 9.92771C47.9759 9.92771 48.8398 9.06379 48.8398 8.08153C48.8398 7.09927 47.9759 6.23535 46.9936 6.23535Z" fill="#F5F5F5" stroke="#F5F5F5" stroke-width="0.123434" stroke-miterlimit="23.9103"/>
<path d="M46.9936 19.5614C46.0114 19.5614 45.1475 20.4253 45.1475 21.4076C45.1475 22.3898 46.0114 23.2538 46.9936 23.2538C47.9759 23.2538 48.8398 22.3898 48.8398 21.4076C48.8398 20.4253 47.9759 19.5614 46.9936 19.5614Z" fill="#F5F5F5" stroke="#F5F5F5" stroke-width="0.123434" stroke-miterlimit="23.9103"/>
<path d="M46.9936 32.8987C46.0114 32.8987 45.1475 33.7626 45.1475 34.7449C45.1475 35.7271 46.0114 36.591 46.9936 36.591C47.9759 36.591 48.8398 35.7271 48.8398 34.7449C48.8398 33.7626 47.9759 32.8987 46.9936 32.8987Z" fill="#F5F5F5" stroke="#F5F5F5" stroke-width="0.123434" stroke-miterlimit="23.9103"/>
<path d="M46.9936 46.1055C46.0114 46.1055 45.1475 46.9694 45.1475 47.9516C45.1475 48.9339 46.0114 49.7978 46.9936 49.7978C47.9759 49.7978 48.8398 48.9339 48.8398 47.9516C48.8398 46.9694 47.9759 46.1055 46.9936 46.1055Z" fill="#F5F5F5" stroke="#F5F5F5" stroke-width="0.123434" stroke-miterlimit="23.9103"/>
<path d="M33.6684 19.5614C32.6862 19.5614 31.8223 20.4253 31.8223 21.4076C31.8223 22.3898 32.6862 23.2538 33.6684 23.2538C34.6507 23.2538 35.5146 22.3898 35.5146 21.4076C35.5146 20.4253 34.6507 19.5614 33.6684 19.5614Z" fill="#F5F5F5" stroke="#F5F5F5" stroke-width="0.123434" stroke-miterlimit="23.9103"/>
<path d="M33.6684 32.8987C32.6862 32.8987 31.8223 33.7626 31.8223 34.7449C31.8223 35.7271 32.6862 36.591 33.6684 36.591C34.6507 36.591 35.5146 35.7271 35.5146 34.7449C35.5146 33.7626 34.6507 32.8987 33.6684 32.8987Z" fill="#F5F5F5" stroke="#F5F5F5" stroke-width="0.123434" stroke-miterlimit="23.9103"/>
<path d="M33.6684 46.1055C32.6862 46.1055 31.8223 46.9694 31.8223 47.9516C31.8223 48.9339 32.6862 49.7978 33.6684 49.7978C34.6507 49.7978 35.5146 48.9339 35.5146 47.9516C35.5146 46.9694 34.6507 46.1055 33.6684 46.1055Z" fill="#F5F5F5" stroke="#F5F5F5" stroke-width="0.123434" stroke-miterlimit="23.9103"/>
<path d="M20.4604 32.8987C19.4782 32.8987 18.6143 33.7626 18.6143 34.7449C18.6143 35.7271 19.4782 36.591 20.4604 36.591C21.4427 36.591 22.3066 35.7271 22.3066 34.7449C22.3066 33.7626 21.4427 32.8987 20.4604 32.8987Z" fill="#F5F5F5" stroke="#F5F5F5" stroke-width="0.123434" stroke-miterlimit="23.9103"/>
<path d="M20.4604 46.1055C19.4782 46.1055 18.6143 46.9694 18.6143 47.9516C18.6143 48.9339 19.4782 49.7978 20.4604 49.7978C21.4427 49.7978 22.3066 48.9339 22.3066 47.9516C22.3066 46.9694 21.4427 46.1055 20.4604 46.1055Z" fill="#F5F5F5" stroke="#F5F5F5" stroke-width="0.123434" stroke-miterlimit="23.9103"/>
<path d="M7.12352 46.1055C6.14126 46.1055 5.27734 46.9694 5.27734 47.9516C5.27734 48.9339 6.14126 49.7978 7.12352 49.7978C8.10578 49.7978 8.9697 48.9339 8.9697 47.9516C8.98153 46.9694 8.11762 46.1055 7.12352 46.1055Z" fill="#F5F5F5" stroke="#F5F5F5" stroke-width="0.123434" stroke-miterlimit="23.9103"/>
</svg>
