<svg width="28" height="61" viewBox="0 0 28 61" fill="none" xmlns="http://www.w3.org/2000/svg">
<path d="M11.3298 1.35726C9.10098 3.47128 7.14074 5.78608 6.03544 8.34472C4.93134 10.8237 4.63705 13.5889 5.19457 16.2455C5.63557 18.79 6.8896 21.122 8.7678 22.8903C10.627 24.7411 13.1425 26.2633 15.8044 27.8956C18.4486 29.5462 21.3573 31.3358 23.7612 34.061C26.1765 36.8195 27.598 40.3107 27.798 43.9752C28.0425 47.4946 27.1734 51.0018 25.3142 53.9976C23.4697 56.922 20.8496 59.0689 18.1008 60.7089C17.7432 60.9222 17.2821 60.825 17.0406 60.4853C16.7991 60.1457 16.8579 59.6772 17.1759 59.4081C19.4945 57.426 21.4942 55.12 22.6729 52.539C23.8361 50.002 24.1857 47.166 23.6736 44.4215C23.2711 41.7974 21.9876 39.3893 20.0352 37.5948C18.1213 35.7582 15.597 34.2919 12.9098 32.722C10.2427 31.1303 7.30054 29.4485 4.77033 26.8051C3.49235 25.4485 2.44824 23.8886 1.6807 22.189C0.952931 20.4923 0.51189 18.6861 0.375635 16.8444C0.128832 13.2889 0.963818 9.52485 2.94229 6.61467C4.85465 3.84566 7.43038 1.60236 10.4331 0.0906274C10.7798 -0.0927632 11.2085 0.00967044 11.4353 0.330128C11.6622 0.650585 11.617 1.08989 11.3298 1.35726Z" fill="#151A1A"/>
<path d="M17.6778 0.0626353C19.7757 1.05365 21.6756 2.42002 23.2841 4.09459C24.1328 5.00704 24.8816 6.00792 25.5176 7.08012C26.1643 8.22173 26.6687 9.4386 27.0195 10.7034C27.3534 12.0005 27.5287 13.3334 27.5413 14.6729C27.5143 16.002 27.1882 22.4465 23.6408 25.5469C23.1904 25.8637 22.6323 25.9871 22.0907 25.8897C21.549 25.7923 21.0686 25.4821 20.7562 25.0281C20.3162 24.3479 20.276 23.4828 20.651 22.7645L20.6963 22.6809C21.6482 20.8819 25.6063 13.8892 21.0882 6.1721C19.8756 4.4022 18.4945 2.75431 16.9644 1.25157L16.9591 1.24684C16.6924 0.964484 16.6793 0.526609 16.9286 0.228697C17.1113 0.0086533 17.4195 -0.0596464 17.6778 0.0626353Z" fill="#151A1A"/>
<path d="M10.5124 60.7618C8.41463 59.7704 6.51479 58.4041 4.90605 56.7298C4.05727 55.8172 3.3085 54.8162 2.67256 53.7437C2.02574 52.6023 1.52131 51.3857 1.17062 50.121C0.836599 48.8238 0.661574 47.4906 0.649414 46.1509C0.675846 44.8218 1.00255 38.3779 4.54935 35.2775C4.99977 34.9606 5.55781 34.8372 6.09947 34.9346C6.64113 35.032 7.12152 35.3422 7.43389 35.7963C7.87427 36.4764 7.91447 37.3417 7.53908 38.0599L7.49384 38.1435C6.54192 39.9425 2.58381 46.9346 7.10248 54.6523C8.31499 56.4223 9.69609 58.0703 11.2263 59.5729L11.231 59.5776C11.4977 59.8599 11.5109 60.2978 11.2616 60.5957C11.0789 60.8158 10.7707 60.8841 10.5124 60.7618Z" fill="#151A1A"/>
</svg>
