<svg width="95" height="24" viewBox="0 0 95 24" fill="none" xmlns="http://www.w3.org/2000/svg">
<path d="M4.3269 0.565714C3.44995 1.39751 2.67867 2.30831 2.24377 3.31504C1.80934 4.29044 1.69355 5.37845 1.91291 6.42373C2.08643 7.4249 2.57985 8.34245 3.31886 9.03822C4.05039 9.76645 5.04017 10.3654 6.08752 11.0077C7.12793 11.6571 8.2724 12.3612 9.21824 13.4335C10.1686 14.5189 10.7279 15.8926 10.8066 17.3344C10.9028 18.7192 10.5608 20.0992 9.8293 21.2779C9.10356 22.4285 8.07262 23.2733 6.99107 23.9186C6.85036 24.0025 6.66895 23.9643 6.57393 23.8306C6.47891 23.697 6.50206 23.5127 6.62715 23.4068C7.53947 22.6269 8.32626 21.7196 8.79005 20.704C9.24773 19.7058 9.38529 18.5899 9.18379 17.51C9.0254 16.4776 8.52041 15.53 7.75218 14.824C6.99915 14.1013 6.00591 13.5244 4.94861 12.9067C3.89918 12.2804 2.74154 11.6187 1.74599 10.5786C1.24315 10.0448 0.832326 9.43103 0.530322 8.76228C0.243971 8.09471 0.0704362 7.38404 0.0168243 6.65939C-0.0802844 5.26039 0.248254 3.77938 1.02672 2.63433C1.77917 1.54482 2.79263 0.66215 3.97409 0.0673361C4.11052 -0.00482196 4.27919 0.0354822 4.36845 0.161571C4.45771 0.28766 4.43994 0.460511 4.3269 0.565714Z" fill="#747474"/>
<path d="M6.82488 0.056216C7.65037 0.446148 8.39791 0.983766 9.03079 1.64265C9.36472 2.00167 9.65934 2.39549 9.9096 2.81736C10.1641 3.26655 10.3625 3.74534 10.5006 4.243C10.6319 4.75336 10.7009 5.27783 10.7059 5.80488C10.6952 6.32782 10.5669 8.86352 9.17114 10.0834C8.99391 10.2081 8.77433 10.2566 8.56121 10.2183C8.34809 10.18 8.15907 10.0579 8.03615 9.87929C7.863 9.61164 7.84719 9.27126 7.99477 8.98864L8.01258 8.95575C8.38713 8.2479 9.94451 5.49649 8.16679 2.46008C7.68965 1.76369 7.14624 1.1153 6.54421 0.524022L6.54212 0.522162C6.43718 0.411063 6.43201 0.238774 6.5301 0.121556C6.60201 0.0349759 6.72325 0.00810227 6.82488 0.056216Z" fill="#747474"/>
<path d="M4.00538 23.9393C3.17999 23.5492 2.43246 23.0116 1.79948 22.3528C1.46551 21.9937 1.17089 21.5999 0.920675 21.1779C0.666171 20.7288 0.467695 20.2501 0.329709 19.7525C0.198285 19.242 0.129419 18.7175 0.124634 18.1904C0.135034 17.6674 0.263581 15.132 1.65913 13.912C1.83635 13.7874 2.05592 13.7388 2.26905 13.7771C2.48217 13.8155 2.67119 13.9375 2.7941 14.1162C2.96737 14.3838 2.98319 14.7242 2.83548 15.0068L2.81768 15.0397C2.44314 15.7476 0.885752 18.4987 2.6637 21.5354C3.14078 22.2318 3.6842 22.8802 4.2863 23.4715L4.28815 23.4733C4.39309 23.5844 4.39826 23.7567 4.30017 23.8739C4.22827 23.9605 4.10702 23.9874 4.00538 23.9393Z" fill="#747474"/>
<path d="M16.9393 13.7096H15.8406C15.8406 14.9886 17.0223 16.1847 18.6887 16.1847C20.2836 16.1847 21.2642 15.2256 21.4063 14.053C21.5718 12.7505 20.7564 11.8858 19.232 11.4952L18.1685 11.2349C17.1404 10.9862 17.0103 10.4529 17.0103 10.0979C17.0103 9.35187 17.7432 8.86611 18.5347 8.86611C19.4211 8.86611 20.071 9.38745 20.071 10.2046H21.1701C21.1701 8.73578 20.0355 7.81226 18.5466 7.81226C17.1639 7.81226 15.9116 8.73578 15.9116 10.1095C15.9116 10.8203 16.1714 11.803 17.8968 12.2412L18.9484 12.5018C19.6808 12.6674 20.4017 13.0819 20.3307 13.9583C20.2366 14.5744 19.7283 15.1545 18.6887 15.1545C17.6606 15.1545 16.9513 14.4205 16.9393 13.7096Z" fill="#747474"/>
<path d="M24.0635 16.0665H23.0003V10.5365H24.0635V16.0665ZM22.7877 8.49958C22.8134 8.8927 23.139 9.19843 23.5321 9.19843C23.9253 9.19843 24.2509 8.8927 24.2766 8.49958C24.2507 8.10663 23.9251 7.80115 23.5321 7.80115C23.1392 7.80115 22.8136 8.10663 22.7877 8.49958Z" fill="#747474"/>
<path d="M26.9623 13.0821C26.9623 11.9099 27.7422 11.4717 28.5221 11.4717C29.2781 11.4717 29.7393 12.0166 29.7393 12.9401V16.0661H30.8144V12.869C30.8144 11.3178 30.058 10.4178 28.6873 10.4178C28.0849 10.4178 27.293 10.7017 26.9623 11.365V10.5362H25.8867V16.0661H26.9623V13.0821Z" fill="#747474"/>
<path d="M33.4282 16.8597C33.2862 16.9309 32.6718 17.2743 32.5298 17.3335C33.0193 18.2571 33.98 18.8319 35.0236 18.8256C36.8431 18.8256 38.0364 17.8308 38.0364 15.2258V10.5362H36.9732V11.4005C36.6069 10.7613 35.8031 10.4178 35.0351 10.4178C33.5223 10.4178 32.2346 11.5545 32.2346 13.3192C32.2346 15.0715 33.5223 16.1849 35.0351 16.1849C35.8031 16.1849 36.6421 15.8179 36.9732 15.1666C36.9732 15.2138 36.9851 15.2494 36.9851 15.2965C36.9851 17.132 36.2168 17.8072 35.0236 17.8072C34.3595 17.8053 33.7487 17.4426 33.4282 16.8597ZM36.9612 13.3072C36.9675 13.7948 36.7762 14.2642 36.431 14.6079C36.0858 14.9516 35.6162 15.1404 35.1297 15.131C34.1371 15.131 33.3336 14.4322 33.3336 13.3072C33.318 12.8219 33.501 12.3514 33.8402 12.0048C34.1794 11.6581 34.6453 11.4655 35.1297 11.4717C36.1103 11.4717 36.9612 12.123 36.9612 13.3072Z" fill="#747474"/>
<path d="M43.6422 13.5201C43.6422 14.7043 42.8623 15.1308 42.0823 15.1308C41.3263 15.1308 40.8771 14.5859 40.8771 13.662V10.536H39.8016V13.7332C39.79 15.2844 40.5464 16.1847 41.9287 16.1847C42.5311 16.1847 43.3115 15.9004 43.6422 15.2372V16.066H44.7173V10.536H43.6422V13.5201Z" fill="#747474"/>
<path d="M46.5428 7.52826V16.0663H47.6184V7.52826H46.5428Z" fill="#747474"/>
<path d="M53.8543 16.0661H54.9179V10.5362H53.8543V11.365C53.488 10.7373 52.6842 10.4178 51.9162 10.4178C50.4038 10.4178 49.1157 11.5309 49.1157 13.2952C49.1157 15.0479 50.4038 16.1849 51.9162 16.1849C52.6842 16.1849 53.488 15.8415 53.8543 15.2138V16.0661ZM53.8423 13.2836C53.8423 14.4558 52.9914 15.131 52.0108 15.131C51.5245 15.1364 51.0572 14.942 50.7178 14.5929C50.3785 14.2438 50.1966 13.7706 50.2147 13.2836C50.1958 12.7996 50.3785 12.3294 50.7192 11.9858C51.0598 11.6422 51.5277 11.4559 52.0108 11.4717C52.8972 11.4717 53.8423 12.0994 53.8423 13.2836Z" fill="#747474"/>
<path d="M57.8222 14.0531C57.8222 12.5847 58.271 11.4477 59.3346 11.4477C59.617 11.45 59.8955 11.5149 60.15 11.6376L60.3156 10.6309C60.0184 10.4831 59.6898 10.41 59.3581 10.4178C58.6376 10.4178 58.1059 10.8084 57.8222 11.7795V10.5362H56.7471V16.0661H57.8222V14.0531Z" fill="#747474"/>
<path d="M62.5416 16.0664H61.478V10.5365H62.5416V16.0664ZM61.2654 8.49953C61.2912 8.89267 61.6169 9.19833 62.01 9.19833C62.4031 9.19833 62.7288 8.89267 62.7546 8.49953C62.7286 8.10657 62.403 7.80115 62.01 7.80115C61.617 7.80115 61.2914 8.10657 61.2654 8.49953Z" fill="#747474"/>
<path d="M65.8217 10.5361V8.4519H64.7465V10.5361H63.754V11.4476H64.7465V16.066H65.8217V11.4476H66.9914V10.5361H65.8217Z" fill="#747474"/>
<path d="M70.0637 18.7546L73.4904 10.536H72.3444L70.69 14.5388L69.036 10.536H67.8898L70.0991 15.9005L68.9409 18.7546H70.0637Z" fill="#747474"/>
<path d="M80.6376 16.0658V7.90686H79.5385V14.0058L75.8635 7.90686H74.7763V16.0658H75.8754V9.9198L79.5855 16.0658H80.6376Z" fill="#747474"/>
<path d="M82.9365 7.90686V16.0658H87.8759V15.0355H84.0356V12.5728H87.2851V11.5425H84.0356V8.93719H87.7578V7.90686H82.9365Z" fill="#747474"/>
<path d="M88.95 7.90686V8.94911H91.4199V16.0658H92.5304V8.94911H95.0003V7.90686H88.95Z" fill="#747474"/>
</svg>
