<svg width="14" height="11" viewBox="0 0 14 11" fill="none" xmlns="http://www.w3.org/2000/svg">
<path d="M3.80896 5.97534L1.00238 5.0609C1.00238 5.0609 0.666963 4.92482 0.774968 4.61624C0.797201 4.5526 0.842051 4.49846 0.976217 4.4054C1.59808 3.97195 12.4864 0.0584011 12.4864 0.0584011C12.4864 0.0584011 12.7938 -0.0451947 12.9751 0.0237095C13.02 0.0375945 13.0603 0.0631454 13.0921 0.097748C13.1238 0.13235 13.1458 0.174763 13.1558 0.220647C13.1754 0.30169 13.1836 0.38507 13.1801 0.468376C13.1793 0.540443 13.1705 0.607239 13.1639 0.711984C13.0976 1.78196 11.1131 9.76756 11.1131 9.76756C11.1131 9.76756 10.9943 10.2348 10.5689 10.2509C10.4644 10.2542 10.3602 10.2365 10.2627 10.1988C10.1651 10.161 10.0762 10.1041 10.0011 10.0312C9.16633 9.31312 6.28098 7.37403 5.6434 6.94757C5.62902 6.93777 5.6169 6.925 5.60788 6.91012C5.59885 6.89525 5.59312 6.8786 5.59107 6.86132C5.58216 6.81638 5.63103 6.7607 5.63103 6.7607C5.63103 6.7607 10.6552 2.29486 10.7889 1.82605C10.7992 1.78973 10.7601 1.77181 10.7076 1.78771C10.3739 1.91048 4.58923 5.56355 3.95079 5.96672C3.90483 5.98062 3.85626 5.98358 3.80896 5.97534Z" fill="black"/>
</svg>
